<svg xmlns="http://www.w3.org/2000/svg" version="1.1" xmlns:xlink="http://www.w3.org/1999/xlink" xmlns:svgjs="http://svgjs.com/svgjs" width="1440" height="560" preserveAspectRatio="none" viewBox="0 0 1440 560"><g mask="url(&quot;#SvgjsMask1012&quot;)" fill="none"><rect width="1440" height="560" x="0" y="0" fill="rgba(0, 0, 0, 1)"></rect><path d="M-73.3 403.73L-73.3 403.73" stroke="rgba(29, 37, 54, 1)" stroke-width="1.5"></path><path d="M-73.3 403.73L58.17 391.97" stroke="rgba(29, 37, 54, 1)" stroke-width="1.5"></path><path d="M-73.3 403.73L-83.05 540.12" stroke="rgba(29, 37, 54, 1)" stroke-width="1.5"></path><path d="M-73.3 403.73L92.83 516.53" stroke="rgba(29, 37, 54, 1)" stroke-width="1.5"></path><path d="M-73.3 403.73L-56.57 680.82" stroke="rgba(29, 37, 54, 1)" stroke-width="1.5"></path><path d="M-73.3 403.73L204.23 351.13" stroke="rgba(29, 37, 54, 1)" stroke-width="1.5"></path><path d="M-73.3 403.73L219.23 504.7" stroke="rgba(29, 37, 54, 1)" stroke-width="1.5"></path><path d="M-83.05 540.12L-83.05 540.12" stroke="rgba(29, 37, 54, 1)" stroke-width="1.5"></path><path d="M-83.05 540.12L-56.57 680.82" stroke="rgba(29, 37, 54, 1)" stroke-width="1.5"></path><path d="M-83.05 540.12L92.83 516.53" stroke="rgba(29, 37, 54, 1)" stroke-width="1.5"></path><path d="M-83.05 540.12L58.17 391.97" stroke="rgba(29, 37, 54, 1)" stroke-width="1.5"></path><path d="M-56.57 680.82L-56.57 680.82" stroke="rgba(29, 37, 54, 1)" stroke-width="1.5"></path><path d="M-56.57 680.82L92.67 710.16" stroke="rgba(29, 37, 54, 1)" stroke-width="1.5"></path><path d="M-56.57 680.82L92.83 516.53" stroke="rgba(29, 37, 54, 1)" stroke-width="1.5"></path><path d="M-56.57 680.82L249.56 705.13" stroke="rgba(29, 37, 54, 1)" stroke-width="1.5"></path><path d="M58.17 391.97L58.17 391.97" stroke="rgba(29, 37, 54, 1)" stroke-width="1.5"></path><path d="M58.17 391.97L92.83 516.53" stroke="rgba(29, 37, 54, 1)" stroke-width="1.5"></path><path d="M92.83 516.53L92.83 516.53" stroke="rgba(29, 37, 54, 1)" stroke-width="1.5"></path><path d="M92.83 516.53L219.23 504.7" stroke="rgba(29, 37, 54, 1)" stroke-width="1.5"></path><path d="M92.83 516.53L92.67 710.16" stroke="rgba(29, 37, 54, 1)" stroke-width="1.5"></path><path d="M92.67 710.16L92.67 710.16" stroke="rgba(29, 37, 54, 1)" stroke-width="1.5"></path><path d="M92.67 710.16L249.56 705.13" stroke="rgba(29, 37, 54, 1)" stroke-width="1.5"></path><path d="M204.23 351.13L204.23 351.13" stroke="rgba(29, 37, 54, 1)" stroke-width="1.5"></path><path d="M204.23 351.13L58.17 391.97" stroke="rgba(29, 37, 54, 1)" stroke-width="1.5"></path><path d="M204.23 351.13L219.23 504.7" stroke="rgba(29, 37, 54, 1)" stroke-width="1.5"></path><path d="M204.23 351.13L363.95 367.66" stroke="rgba(29, 37, 54, 1)" stroke-width="1.5"></path><path d="M204.23 351.13L92.83 516.53" stroke="rgba(29, 37, 54, 1)" stroke-width="1.5"></path><path d="M204.23 351.13L368.97 544.02" stroke="rgba(29, 37, 54, 1)" stroke-width="1.5"></path><path d="M219.23 504.7L219.23 504.7" stroke="rgba(29, 37, 54, 1)" stroke-width="1.5"></path><path d="M219.23 504.7L368.97 544.02" stroke="rgba(29, 37, 54, 1)" stroke-width="1.5"></path><path d="M219.23 504.7L58.17 391.97" stroke="rgba(29, 37, 54, 1)" stroke-width="1.5"></path><path d="M219.23 504.7L363.95 367.66" stroke="rgba(29, 37, 54, 1)" stroke-width="1.5"></path><path d="M219.23 504.7L249.56 705.13" stroke="rgba(29, 37, 54, 1)" stroke-width="1.5"></path><path d="M249.56 705.13L249.56 705.13" stroke="rgba(29, 37, 54, 1)" stroke-width="1.5"></path><path d="M249.56 705.13L373.65 650.22" stroke="rgba(29, 37, 54, 1)" stroke-width="1.5"></path><path d="M363.95 367.66L363.95 367.66" stroke="rgba(29, 37, 54, 1)" stroke-width="1.5"></path><path d="M363.95 367.66L519.91 367.62" stroke="rgba(29, 37, 54, 1)" stroke-width="1.5"></path><path d="M363.95 367.66L368.97 544.02" stroke="rgba(29, 37, 54, 1)" stroke-width="1.5"></path><path d="M368.97 544.02L368.97 544.02" stroke="rgba(29, 37, 54, 1)" stroke-width="1.5"></path><path d="M368.97 544.02L373.65 650.22" stroke="rgba(29, 37, 54, 1)" stroke-width="1.5"></path><path d="M368.97 544.02L559.3 548.95" stroke="rgba(29, 37, 54, 1)" stroke-width="1.5"></path><path d="M373.65 650.22L373.65 650.22" stroke="rgba(29, 37, 54, 1)" stroke-width="1.5"></path><path d="M373.65 650.22L522.35 688.09" stroke="rgba(29, 37, 54, 1)" stroke-width="1.5"></path><path d="M373.65 650.22L559.3 548.95" stroke="rgba(29, 37, 54, 1)" stroke-width="1.5"></path><path d="M373.65 650.22L219.23 504.7" stroke="rgba(29, 37, 54, 1)" stroke-width="1.5"></path><path d="M373.65 650.22L363.95 367.66" stroke="rgba(29, 37, 54, 1)" stroke-width="1.5"></path><path d="M519.91 367.62L519.91 367.62" stroke="rgba(29, 37, 54, 1)" stroke-width="1.5"></path><path d="M519.91 367.62L644.41 389.54" stroke="rgba(29, 37, 54, 1)" stroke-width="1.5"></path><path d="M519.91 367.62L559.3 548.95" stroke="rgba(29, 37, 54, 1)" stroke-width="1.5"></path><path d="M559.3 548.95L559.3 548.95" stroke="rgba(29, 37, 54, 1)" stroke-width="1.5"></path><path d="M559.3 548.95L522.35 688.09" stroke="rgba(29, 37, 54, 1)" stroke-width="1.5"></path><path d="M559.3 548.95L644.41 389.54" stroke="rgba(29, 37, 54, 1)" stroke-width="1.5"></path><path d="M559.3 548.95L363.95 367.66" stroke="rgba(29, 37, 54, 1)" stroke-width="1.5"></path><path d="M522.35 688.09L522.35 688.09" stroke="rgba(29, 37, 54, 1)" stroke-width="1.5"></path><path d="M522.35 688.09L368.97 544.02" stroke="rgba(29, 37, 54, 1)" stroke-width="1.5"></path><path d="M666.03 219.01L666.03 219.01" stroke="rgba(29, 37, 54, 1)" stroke-width="1.5"></path><path d="M666.03 219.01L809.11 250.3" stroke="rgba(29, 37, 54, 1)" stroke-width="1.5"></path><path d="M666.03 219.01L644.41 389.54" stroke="rgba(29, 37, 54, 1)" stroke-width="1.5"></path><path d="M666.03 219.01L820.62 358.61" stroke="rgba(29, 37, 54, 1)" stroke-width="1.5"></path><path d="M666.03 219.01L519.91 367.62" stroke="rgba(29, 37, 54, 1)" stroke-width="1.5"></path><path d="M666.03 219.01L963.31 223.63" stroke="rgba(29, 37, 54, 1)" stroke-width="1.5"></path><path d="M666.03 219.01L363.95 367.66" stroke="rgba(29, 37, 54, 1)" stroke-width="1.5"></path><path d="M644.41 389.54L644.41 389.54" stroke="rgba(29, 37, 54, 1)" stroke-width="1.5"></path><path d="M809.11 250.3L809.11 250.3" stroke="rgba(29, 37, 54, 1)" stroke-width="1.5"></path><path d="M809.11 250.3L820.62 358.61" stroke="rgba(29, 37, 54, 1)" stroke-width="1.5"></path><path d="M809.11 250.3L963.31 223.63" stroke="rgba(29, 37, 54, 1)" stroke-width="1.5"></path><path d="M820.62 358.61L820.62 358.61" stroke="rgba(29, 37, 54, 1)" stroke-width="1.5"></path><path d="M820.62 358.61L973.81 394.94" stroke="rgba(29, 37, 54, 1)" stroke-width="1.5"></path><path d="M820.62 358.61L862.31 518.38" stroke="rgba(29, 37, 54, 1)" stroke-width="1.5"></path><path d="M820.62 358.61L644.41 389.54" stroke="rgba(29, 37, 54, 1)" stroke-width="1.5"></path><path d="M820.62 358.61L963.31 223.63" stroke="rgba(29, 37, 54, 1)" stroke-width="1.5"></path><path d="M862.31 518.38L862.31 518.38" stroke="rgba(29, 37, 54, 1)" stroke-width="1.5"></path><path d="M862.31 518.38L1003.57 533.66" stroke="rgba(29, 37, 54, 1)" stroke-width="1.5"></path><path d="M862.31 518.38L973.81 394.94" stroke="rgba(29, 37, 54, 1)" stroke-width="1.5"></path><path d="M862.31 518.38L808.33 681.01" stroke="rgba(29, 37, 54, 1)" stroke-width="1.5"></path><path d="M862.31 518.38L985.63 637.97" stroke="rgba(29, 37, 54, 1)" stroke-width="1.5"></path><path d="M808.33 681.01L808.33 681.01" stroke="rgba(29, 37, 54, 1)" stroke-width="1.5"></path><path d="M808.33 681.01L985.63 637.97" stroke="rgba(29, 37, 54, 1)" stroke-width="1.5"></path><path d="M808.33 681.01L1003.57 533.66" stroke="rgba(29, 37, 54, 1)" stroke-width="1.5"></path><path d="M808.33 681.01L559.3 548.95" stroke="rgba(29, 37, 54, 1)" stroke-width="1.5"></path><path d="M808.33 681.01L522.35 688.09" stroke="rgba(29, 37, 54, 1)" stroke-width="1.5"></path><path d="M808.33 681.01L1123.87 664.03" stroke="rgba(29, 37, 54, 1)" stroke-width="1.5"></path><path d="M981.92 -93.76L981.92 -93.76" stroke="rgba(29, 37, 54, 1)" stroke-width="1.5"></path><path d="M981.92 -93.76L996.27 85.63" stroke="rgba(29, 37, 54, 1)" stroke-width="1.5"></path><path d="M981.92 -93.76L1109.55 81" stroke="rgba(29, 37, 54, 1)" stroke-width="1.5"></path><path d="M981.92 -93.76L1272.54 -72.4" stroke="rgba(29, 37, 54, 1)" stroke-width="1.5"></path><path d="M996.27 85.63L996.27 85.63" stroke="rgba(29, 37, 54, 1)" stroke-width="1.5"></path><path d="M996.27 85.63L1109.55 81" stroke="rgba(29, 37, 54, 1)" stroke-width="1.5"></path><path d="M996.27 85.63L963.31 223.63" stroke="rgba(29, 37, 54, 1)" stroke-width="1.5"></path><path d="M963.31 223.63L963.31 223.63" stroke="rgba(29, 37, 54, 1)" stroke-width="1.5"></path><path d="M963.31 223.63L973.81 394.94" stroke="rgba(29, 37, 54, 1)" stroke-width="1.5"></path><path d="M963.31 223.63L1143.13 243.03" stroke="rgba(29, 37, 54, 1)" stroke-width="1.5"></path><path d="M963.31 223.63L1102.51 361.32" stroke="rgba(29, 37, 54, 1)" stroke-width="1.5"></path><path d="M973.81 394.94L973.81 394.94" stroke="rgba(29, 37, 54, 1)" stroke-width="1.5"></path><path d="M973.81 394.94L1102.51 361.32" stroke="rgba(29, 37, 54, 1)" stroke-width="1.5"></path><path d="M1003.57 533.66L1003.57 533.66" stroke="rgba(29, 37, 54, 1)" stroke-width="1.5"></path><path d="M1003.57 533.66L1106.55 523.82" stroke="rgba(29, 37, 54, 1)" stroke-width="1.5"></path><path d="M985.63 637.97L985.63 637.97" stroke="rgba(29, 37, 54, 1)" stroke-width="1.5"></path><path d="M985.63 637.97L1003.57 533.66" stroke="rgba(29, 37, 54, 1)" stroke-width="1.5"></path><path d="M985.63 637.97L1123.87 664.03" stroke="rgba(29, 37, 54, 1)" stroke-width="1.5"></path><path d="M985.63 637.97L1106.55 523.82" stroke="rgba(29, 37, 54, 1)" stroke-width="1.5"></path><path d="M1109.55 81L1109.55 81" stroke="rgba(29, 37, 54, 1)" stroke-width="1.5"></path><path d="M1109.55 81L1243.44 108.78" stroke="rgba(29, 37, 54, 1)" stroke-width="1.5"></path><path d="M1109.55 81L1143.13 243.03" stroke="rgba(29, 37, 54, 1)" stroke-width="1.5"></path><path d="M1109.55 81L963.31 223.63" stroke="rgba(29, 37, 54, 1)" stroke-width="1.5"></path><path d="M1143.13 243.03L1143.13 243.03" stroke="rgba(29, 37, 54, 1)" stroke-width="1.5"></path><path d="M1143.13 243.03L1102.51 361.32" stroke="rgba(29, 37, 54, 1)" stroke-width="1.5"></path><path d="M1143.13 243.03L1243.44 108.78" stroke="rgba(29, 37, 54, 1)" stroke-width="1.5"></path><path d="M1102.51 361.32L1102.51 361.32" stroke="rgba(29, 37, 54, 1)" stroke-width="1.5"></path><path d="M1102.51 361.32L1106.55 523.82" stroke="rgba(29, 37, 54, 1)" stroke-width="1.5"></path><path d="M1102.51 361.32L1280.6 405.87" stroke="rgba(29, 37, 54, 1)" stroke-width="1.5"></path><path d="M1102.51 361.32L1003.57 533.66" stroke="rgba(29, 37, 54, 1)" stroke-width="1.5"></path><path d="M1106.55 523.82L1106.55 523.82" stroke="rgba(29, 37, 54, 1)" stroke-width="1.5"></path><path d="M1106.55 523.82L1243.63 536.58" stroke="rgba(29, 37, 54, 1)" stroke-width="1.5"></path><path d="M1106.55 523.82L1123.87 664.03" stroke="rgba(29, 37, 54, 1)" stroke-width="1.5"></path><path d="M1106.55 523.82L973.81 394.94" stroke="rgba(29, 37, 54, 1)" stroke-width="1.5"></path><path d="M1123.87 664.03L1123.87 664.03" stroke="rgba(29, 37, 54, 1)" stroke-width="1.5"></path><path d="M1123.87 664.03L1243.63 536.58" stroke="rgba(29, 37, 54, 1)" stroke-width="1.5"></path><path d="M1272.54 -72.4L1272.54 -72.4" stroke="rgba(29, 37, 54, 1)" stroke-width="1.5"></path><path d="M1272.54 -72.4L1448.69 -99.05" stroke="rgba(29, 37, 54, 1)" stroke-width="1.5"></path><path d="M1243.44 108.78L1243.44 108.78" stroke="rgba(29, 37, 54, 1)" stroke-width="1.5"></path><path d="M1243.44 108.78L1272.54 -72.4" stroke="rgba(29, 37, 54, 1)" stroke-width="1.5"></path><path d="M1243.44 108.78L1394.01 217.36" stroke="rgba(29, 37, 54, 1)" stroke-width="1.5"></path><path d="M1243.44 108.78L1426.44 76.01" stroke="rgba(29, 37, 54, 1)" stroke-width="1.5"></path><path d="M1243.44 108.78L996.27 85.63" stroke="rgba(29, 37, 54, 1)" stroke-width="1.5"></path><path d="M1280.6 405.87L1280.6 405.87" stroke="rgba(29, 37, 54, 1)" stroke-width="1.5"></path><path d="M1280.6 405.87L1390.38 403.36" stroke="rgba(29, 37, 54, 1)" stroke-width="1.5"></path><path d="M1280.6 405.87L1243.63 536.58" stroke="rgba(29, 37, 54, 1)" stroke-width="1.5"></path><path d="M1243.63 536.58L1243.63 536.58" stroke="rgba(29, 37, 54, 1)" stroke-width="1.5"></path><path d="M1243.63 536.58L1296.18 698.92" stroke="rgba(29, 37, 54, 1)" stroke-width="1.5"></path><path d="M1243.63 536.58L1390.38 403.36" stroke="rgba(29, 37, 54, 1)" stroke-width="1.5"></path><path d="M1243.63 536.58L1454.29 537.64" stroke="rgba(29, 37, 54, 1)" stroke-width="1.5"></path><path d="M1296.18 698.92L1296.18 698.92" stroke="rgba(29, 37, 54, 1)" stroke-width="1.5"></path><path d="M1296.18 698.92L1404.72 685.56" stroke="rgba(29, 37, 54, 1)" stroke-width="1.5"></path><path d="M1296.18 698.92L1123.87 664.03" stroke="rgba(29, 37, 54, 1)" stroke-width="1.5"></path><path d="M1296.18 698.92L1454.29 537.64" stroke="rgba(29, 37, 54, 1)" stroke-width="1.5"></path><path d="M1296.18 698.92L1106.55 523.82" stroke="rgba(29, 37, 54, 1)" stroke-width="1.5"></path><path d="M1296.18 698.92L1280.6 405.87" stroke="rgba(29, 37, 54, 1)" stroke-width="1.5"></path><path d="M1448.69 -99.05L1448.69 -99.05" stroke="rgba(29, 37, 54, 1)" stroke-width="1.5"></path><path d="M1448.69 -99.05L1597.08 -43.31" stroke="rgba(29, 37, 54, 1)" stroke-width="1.5"></path><path d="M1448.69 -99.05L1426.44 76.01" stroke="rgba(29, 37, 54, 1)" stroke-width="1.5"></path><path d="M1448.69 -99.05L1564.61 87.31" stroke="rgba(29, 37, 54, 1)" stroke-width="1.5"></path><path d="M1448.69 -99.05L1243.44 108.78" stroke="rgba(29, 37, 54, 1)" stroke-width="1.5"></path><path d="M1448.69 -99.05L1394.01 217.36" stroke="rgba(29, 37, 54, 1)" stroke-width="1.5"></path><path d="M1426.44 76.01L1426.44 76.01" stroke="rgba(29, 37, 54, 1)" stroke-width="1.5"></path><path d="M1426.44 76.01L1564.61 87.31" stroke="rgba(29, 37, 54, 1)" stroke-width="1.5"></path><path d="M1426.44 76.01L1394.01 217.36" stroke="rgba(29, 37, 54, 1)" stroke-width="1.5"></path><path d="M1426.44 76.01L1597.08 -43.31" stroke="rgba(29, 37, 54, 1)" stroke-width="1.5"></path><path d="M1394.01 217.36L1394.01 217.36" stroke="rgba(29, 37, 54, 1)" stroke-width="1.5"></path><path d="M1394.01 217.36L1561.05 255.37" stroke="rgba(29, 37, 54, 1)" stroke-width="1.5"></path><path d="M1390.38 403.36L1390.38 403.36" stroke="rgba(29, 37, 54, 1)" stroke-width="1.5"></path><path d="M1390.38 403.36L1454.29 537.64" stroke="rgba(29, 37, 54, 1)" stroke-width="1.5"></path><path d="M1454.29 537.64L1454.29 537.64" stroke="rgba(29, 37, 54, 1)" stroke-width="1.5"></path><path d="M1454.29 537.64L1563.82 557.59" stroke="rgba(29, 37, 54, 1)" stroke-width="1.5"></path><path d="M1404.72 685.56L1404.72 685.56" stroke="rgba(29, 37, 54, 1)" stroke-width="1.5"></path><path d="M1404.72 685.56L1454.29 537.64" stroke="rgba(29, 37, 54, 1)" stroke-width="1.5"></path><path d="M1404.72 685.56L1598.57 649.42" stroke="rgba(29, 37, 54, 1)" stroke-width="1.5"></path><path d="M1404.72 685.56L1563.82 557.59" stroke="rgba(29, 37, 54, 1)" stroke-width="1.5"></path><path d="M1597.08 -43.31L1597.08 -43.31" stroke="rgba(29, 37, 54, 1)" stroke-width="1.5"></path><path d="M1597.08 -43.31L1564.61 87.31" stroke="rgba(29, 37, 54, 1)" stroke-width="1.5"></path><path d="M1597.08 -43.31L1561.05 255.37" stroke="rgba(29, 37, 54, 1)" stroke-width="1.5"></path><path d="M1564.61 87.31L1564.61 87.31" stroke="rgba(29, 37, 54, 1)" stroke-width="1.5"></path><path d="M1564.61 87.31L1561.05 255.37" stroke="rgba(29, 37, 54, 1)" stroke-width="1.5"></path><path d="M1564.61 87.31L1394.01 217.36" stroke="rgba(29, 37, 54, 1)" stroke-width="1.5"></path><path d="M1561.05 255.37L1561.05 255.37" stroke="rgba(29, 37, 54, 1)" stroke-width="1.5"></path><path d="M1561.05 255.37L1554.27 376.6" stroke="rgba(29, 37, 54, 1)" stroke-width="1.5"></path><path d="M1554.27 376.6L1554.27 376.6" stroke="rgba(29, 37, 54, 1)" stroke-width="1.5"></path><path d="M1554.27 376.6L1390.38 403.36" stroke="rgba(29, 37, 54, 1)" stroke-width="1.5"></path><path d="M1554.27 376.6L1563.82 557.59" stroke="rgba(29, 37, 54, 1)" stroke-width="1.5"></path><path d="M1563.82 557.59L1563.82 557.59" stroke="rgba(29, 37, 54, 1)" stroke-width="1.5"></path><path d="M1563.82 557.59L1598.57 649.42" stroke="rgba(29, 37, 54, 1)" stroke-width="1.5"></path><path d="M1563.82 557.59L1390.38 403.36" stroke="rgba(29, 37, 54, 1)" stroke-width="1.5"></path><path d="M1598.57 649.42L1598.57 649.42" stroke="rgba(29, 37, 54, 1)" stroke-width="1.5"></path><path d="M1598.57 649.42L1454.29 537.64" stroke="rgba(29, 37, 54, 1)" stroke-width="1.5"></path><path d="M1598.57 649.42L1554.27 376.6" stroke="rgba(29, 37, 54, 1)" stroke-width="1.5"></path><path d="M1598.57 649.42L1296.18 698.92" stroke="rgba(29, 37, 54, 1)" stroke-width="1.5"></path><circle r="5" cx="-73.3" cy="403.73" fill="rgba(29, 37, 54, 1)"></circle><circle r="5" cx="-83.05" cy="540.12" fill="rgba(29, 37, 54, 1)"></circle><circle r="5" cx="-56.57" cy="680.82" fill="rgba(29, 37, 54, 1)"></circle><circle r="5" cx="58.17" cy="391.97" fill="rgba(29, 37, 54, 1)"></circle><circle r="5" cx="92.83" cy="516.53" fill="rgba(29, 37, 54, 1)"></circle><circle r="5" cx="92.67" cy="710.16" fill="rgba(29, 37, 54, 1)"></circle><circle r="5" cx="204.23" cy="351.13" fill="rgba(29, 37, 54, 1)"></circle><circle r="5" cx="219.23" cy="504.7" fill="rgba(29, 37, 54, 1)"></circle><circle r="5" cx="249.56" cy="705.13" fill="rgba(29, 37, 54, 1)"></circle><circle r="5" cx="363.95" cy="367.66" fill="rgba(29, 37, 54, 1)"></circle><circle r="5" cx="368.97" cy="544.02" fill="rgba(29, 37, 54, 1)"></circle><circle r="5" cx="373.65" cy="650.22" fill="rgba(29, 37, 54, 1)"></circle><circle r="5" cx="519.91" cy="367.62" fill="rgba(29, 37, 54, 1)"></circle><circle r="5" cx="559.3" cy="548.95" fill="rgba(29, 37, 54, 1)"></circle><circle r="5" cx="522.35" cy="688.09" fill="rgba(29, 37, 54, 1)"></circle><circle r="5" cx="666.03" cy="219.01" fill="rgba(29, 37, 54, 1)"></circle><circle r="5" cx="644.41" cy="389.54" fill="rgba(29, 37, 54, 1)"></circle><circle r="5" cx="809.11" cy="250.3" fill="rgba(29, 37, 54, 1)"></circle><circle r="5" cx="820.62" cy="358.61" fill="rgba(29, 37, 54, 1)"></circle><circle r="5" cx="862.31" cy="518.38" fill="rgba(29, 37, 54, 1)"></circle><circle r="5" cx="808.33" cy="681.01" fill="rgba(29, 37, 54, 1)"></circle><circle r="5" cx="981.92" cy="-93.76" fill="rgba(29, 37, 54, 1)"></circle><circle r="5" cx="996.27" cy="85.63" fill="rgba(29, 37, 54, 1)"></circle><circle r="5" cx="963.31" cy="223.63" fill="rgba(29, 37, 54, 1)"></circle><circle r="5" cx="973.81" cy="394.94" fill="rgba(29, 37, 54, 1)"></circle><circle r="5" cx="1003.57" cy="533.66" fill="rgba(29, 37, 54, 1)"></circle><circle r="5" cx="985.63" cy="637.97" fill="rgba(29, 37, 54, 1)"></circle><circle r="5" cx="1109.55" cy="81" fill="rgba(29, 37, 54, 1)"></circle><circle r="5" cx="1143.13" cy="243.03" fill="rgba(29, 37, 54, 1)"></circle><circle r="5" cx="1102.51" cy="361.32" fill="rgba(29, 37, 54, 1)"></circle><circle r="5" cx="1106.55" cy="523.82" fill="rgba(29, 37, 54, 1)"></circle><circle r="5" cx="1123.87" cy="664.03" fill="rgba(29, 37, 54, 1)"></circle><circle r="5" cx="1272.54" cy="-72.4" fill="rgba(29, 37, 54, 1)"></circle><circle r="5" cx="1243.44" cy="108.78" fill="rgba(29, 37, 54, 1)"></circle><circle r="5" cx="1280.6" cy="405.87" fill="rgba(29, 37, 54, 1)"></circle><circle r="5" cx="1243.63" cy="536.58" fill="rgba(29, 37, 54, 1)"></circle><circle r="5" cx="1296.18" cy="698.92" fill="rgba(29, 37, 54, 1)"></circle><circle r="5" cx="1448.69" cy="-99.05" fill="rgba(29, 37, 54, 1)"></circle><circle r="5" cx="1426.44" cy="76.01" fill="rgba(29, 37, 54, 1)"></circle><circle r="5" cx="1394.01" cy="217.36" fill="rgba(29, 37, 54, 1)"></circle><circle r="5" cx="1390.38" cy="403.36" fill="rgba(29, 37, 54, 1)"></circle><circle r="5" cx="1454.29" cy="537.64" fill="rgba(29, 37, 54, 1)"></circle><circle r="5" cx="1404.72" cy="685.56" fill="rgba(29, 37, 54, 1)"></circle><circle r="5" cx="1597.08" cy="-43.31" fill="rgba(29, 37, 54, 1)"></circle><circle r="5" cx="1564.61" cy="87.31" fill="rgba(29, 37, 54, 1)"></circle><circle r="5" cx="1561.05" cy="255.37" fill="rgba(29, 37, 54, 1)"></circle><circle r="5" cx="1554.27" cy="376.6" fill="rgba(29, 37, 54, 1)"></circle><circle r="5" cx="1563.82" cy="557.59" fill="rgba(29, 37, 54, 1)"></circle><circle r="5" cx="1598.57" cy="649.42" fill="rgba(29, 37, 54, 1)"></circle><path d="M1277.59 502.04L1277.59 502.04" stroke="hsl(240, 1.3%, 40.3%)" stroke-width="1.5"></path><path d="M1277.59 502.04L1308.78 359.03" stroke="hsl(240, 1.3%, 40.3%)" stroke-width="1.5"></path><path d="M1277.59 502.04L1424.28 498.14" stroke="hsl(240, 1.3%, 40.3%)" stroke-width="1.5"></path><path d="M1277.59 502.04L1260.22 658.05" stroke="hsl(240, 1.3%, 40.3%)" stroke-width="1.5"></path><path d="M1277.59 502.04L1091.63 493.21" stroke="hsl(240, 1.3%, 40.3%)" stroke-width="1.5"></path><path d="M1429.71 100.65L1429.71 100.65" stroke="hsl(240, 1.3%, 40.3%)" stroke-width="1.5"></path><path d="M1429.71 100.65L1296.01 47.75" stroke="hsl(240, 1.3%, 40.3%)" stroke-width="1.5"></path><path d="M1429.71 100.65L1575.79 42.23" stroke="hsl(240, 1.3%, 40.3%)" stroke-width="1.5"></path><path d="M1429.71 100.65L1440.55 -71.67" stroke="hsl(240, 1.3%, 40.3%)" stroke-width="1.5"></path><path d="M1600.42 -82.25L1600.42 -82.25" stroke="hsl(240, 1.3%, 40.3%)" stroke-width="1.5"></path><path d="M1600.42 -82.25L1575.79 42.23" stroke="hsl(240, 1.3%, 40.3%)" stroke-width="1.5"></path><path d="M1600.42 -82.25L1440.55 -71.67" stroke="hsl(240, 1.3%, 40.3%)" stroke-width="1.5"></path><path d="M-88.12 492.41L-88.12 492.41" stroke="hsl(240, 1.3%, 40.3%)" stroke-width="1.5"></path><path d="M-88.12 492.41L-44.24 683.25" stroke="hsl(240, 1.3%, 40.3%)" stroke-width="1.5"></path><path d="M-88.12 492.41L104.07 560.83" stroke="hsl(240, 1.3%, 40.3%)" stroke-width="1.5"></path><path d="M-88.12 492.41L100.19 711.42" stroke="hsl(240, 1.3%, 40.3%)" stroke-width="1.5"></path><path d="M-88.12 492.41L219.51 530.14" stroke="hsl(240, 1.3%, 40.3%)" stroke-width="1.5"></path><path d="M-88.12 492.41L207.9 677.48" stroke="hsl(240, 1.3%, 40.3%)" stroke-width="1.5"></path><path d="M-88.12 492.41L362.95 511.74" stroke="hsl(240, 1.3%, 40.3%)" stroke-width="1.5"></path><path d="M-44.24 683.25L-44.24 683.25" stroke="hsl(240, 1.3%, 40.3%)" stroke-width="1.5"></path><path d="M-44.24 683.25L100.19 711.42" stroke="hsl(240, 1.3%, 40.3%)" stroke-width="1.5"></path><path d="M-44.24 683.25L104.07 560.83" stroke="hsl(240, 1.3%, 40.3%)" stroke-width="1.5"></path><path d="M-44.24 683.25L207.9 677.48" stroke="hsl(240, 1.3%, 40.3%)" stroke-width="1.5"></path><path d="M-44.24 683.25L219.51 530.14" stroke="hsl(240, 1.3%, 40.3%)" stroke-width="1.5"></path><path d="M104.07 560.83L104.07 560.83" stroke="hsl(240, 1.3%, 40.3%)" stroke-width="1.5"></path><path d="M104.07 560.83L219.51 530.14" stroke="hsl(240, 1.3%, 40.3%)" stroke-width="1.5"></path><path d="M104.07 560.83L100.19 711.42" stroke="hsl(240, 1.3%, 40.3%)" stroke-width="1.5"></path><path d="M100.19 711.42L100.19 711.42" stroke="hsl(240, 1.3%, 40.3%)" stroke-width="1.5"></path><path d="M100.19 711.42L207.9 677.48" stroke="hsl(240, 1.3%, 40.3%)" stroke-width="1.5"></path><path d="M100.19 711.42L219.51 530.14" stroke="hsl(240, 1.3%, 40.3%)" stroke-width="1.5"></path><path d="M100.19 711.42L399.85 646.3" stroke="hsl(240, 1.3%, 40.3%)" stroke-width="1.5"></path><path d="M219.51 530.14L219.51 530.14" stroke="hsl(240, 1.3%, 40.3%)" stroke-width="1.5"></path><path d="M219.51 530.14L362.95 511.74" stroke="hsl(240, 1.3%, 40.3%)" stroke-width="1.5"></path><path d="M219.51 530.14L207.9 677.48" stroke="hsl(240, 1.3%, 40.3%)" stroke-width="1.5"></path><path d="M207.9 677.48L207.9 677.48" stroke="hsl(240, 1.3%, 40.3%)" stroke-width="1.5"></path><path d="M362.95 511.74L362.95 511.74" stroke="hsl(240, 1.3%, 40.3%)" stroke-width="1.5"></path><path d="M362.95 511.74L399.85 646.3" stroke="hsl(240, 1.3%, 40.3%)" stroke-width="1.5"></path><path d="M362.95 511.74L547.66 539.75" stroke="hsl(240, 1.3%, 40.3%)" stroke-width="1.5"></path><path d="M362.95 511.74L531.55 411.53" stroke="hsl(240, 1.3%, 40.3%)" stroke-width="1.5"></path><path d="M362.95 511.74L207.9 677.48" stroke="hsl(240, 1.3%, 40.3%)" stroke-width="1.5"></path><path d="M399.85 646.3L399.85 646.3" stroke="hsl(240, 1.3%, 40.3%)" stroke-width="1.5"></path><path d="M399.85 646.3L557.92 686.79" stroke="hsl(240, 1.3%, 40.3%)" stroke-width="1.5"></path><path d="M399.85 646.3L547.66 539.75" stroke="hsl(240, 1.3%, 40.3%)" stroke-width="1.5"></path><path d="M531.55 411.53L531.55 411.53" stroke="hsl(240, 1.3%, 40.3%)" stroke-width="1.5"></path><path d="M531.55 411.53L547.66 539.75" stroke="hsl(240, 1.3%, 40.3%)" stroke-width="1.5"></path><path d="M531.55 411.53L696.15 541.66" stroke="hsl(240, 1.3%, 40.3%)" stroke-width="1.5"></path><path d="M531.55 411.53L399.85 646.3" stroke="hsl(240, 1.3%, 40.3%)" stroke-width="1.5"></path><path d="M531.55 411.53L557.92 686.79" stroke="hsl(240, 1.3%, 40.3%)" stroke-width="1.5"></path><path d="M547.66 539.75L547.66 539.75" stroke="hsl(240, 1.3%, 40.3%)" stroke-width="1.5"></path><path d="M547.66 539.75L557.92 686.79" stroke="hsl(240, 1.3%, 40.3%)" stroke-width="1.5"></path><path d="M547.66 539.75L696.15 541.66" stroke="hsl(240, 1.3%, 40.3%)" stroke-width="1.5"></path><path d="M547.66 539.75L684.44 652.17" stroke="hsl(240, 1.3%, 40.3%)" stroke-width="1.5"></path><path d="M557.92 686.79L557.92 686.79" stroke="hsl(240, 1.3%, 40.3%)" stroke-width="1.5"></path><path d="M557.92 686.79L684.44 652.17" stroke="hsl(240, 1.3%, 40.3%)" stroke-width="1.5"></path><path d="M696.15 541.66L696.15 541.66" stroke="hsl(240, 1.3%, 40.3%)" stroke-width="1.5"></path><path d="M696.15 541.66L684.44 652.17" stroke="hsl(240, 1.3%, 40.3%)" stroke-width="1.5"></path><path d="M684.44 652.17L684.44 652.17" stroke="hsl(240, 1.3%, 40.3%)" stroke-width="1.5"></path><path d="M684.44 652.17L794.44 706.59" stroke="hsl(240, 1.3%, 40.3%)" stroke-width="1.5"></path><path d="M684.44 652.17L845.72 556.49" stroke="hsl(240, 1.3%, 40.3%)" stroke-width="1.5"></path><path d="M684.44 652.17L399.85 646.3" stroke="hsl(240, 1.3%, 40.3%)" stroke-width="1.5"></path><path d="M831.11 380.68L831.11 380.68" stroke="hsl(240, 1.3%, 40.3%)" stroke-width="1.5"></path><path d="M831.11 380.68L990.05 377.24" stroke="hsl(240, 1.3%, 40.3%)" stroke-width="1.5"></path><path d="M831.11 380.68L845.72 556.49" stroke="hsl(240, 1.3%, 40.3%)" stroke-width="1.5"></path><path d="M831.11 380.68L696.15 541.66" stroke="hsl(240, 1.3%, 40.3%)" stroke-width="1.5"></path><path d="M831.11 380.68L1002.4 544.04" stroke="hsl(240, 1.3%, 40.3%)" stroke-width="1.5"></path><path d="M845.72 556.49L845.72 556.49" stroke="hsl(240, 1.3%, 40.3%)" stroke-width="1.5"></path><path d="M845.72 556.49L696.15 541.66" stroke="hsl(240, 1.3%, 40.3%)" stroke-width="1.5"></path><path d="M845.72 556.49L1002.4 544.04" stroke="hsl(240, 1.3%, 40.3%)" stroke-width="1.5"></path><path d="M845.72 556.49L794.44 706.59" stroke="hsl(240, 1.3%, 40.3%)" stroke-width="1.5"></path><path d="M794.44 706.59L794.44 706.59" stroke="hsl(240, 1.3%, 40.3%)" stroke-width="1.5"></path><path d="M990.05 377.24L990.05 377.24" stroke="hsl(240, 1.3%, 40.3%)" stroke-width="1.5"></path><path d="M990.05 377.24L1138.78 358.35" stroke="hsl(240, 1.3%, 40.3%)" stroke-width="1.5"></path><path d="M990.05 377.24L1091.63 493.21" stroke="hsl(240, 1.3%, 40.3%)" stroke-width="1.5"></path><path d="M990.05 377.24L1002.4 544.04" stroke="hsl(240, 1.3%, 40.3%)" stroke-width="1.5"></path><path d="M990.05 377.24L1160.02 253.85" stroke="hsl(240, 1.3%, 40.3%)" stroke-width="1.5"></path><path d="M990.05 377.24L845.72 556.49" stroke="hsl(240, 1.3%, 40.3%)" stroke-width="1.5"></path><path d="M1002.4 544.04L1002.4 544.04" stroke="hsl(240, 1.3%, 40.3%)" stroke-width="1.5"></path><path d="M1002.4 544.04L1091.63 493.21" stroke="hsl(240, 1.3%, 40.3%)" stroke-width="1.5"></path><path d="M1160.02 253.85L1160.02 253.85" stroke="hsl(240, 1.3%, 40.3%)" stroke-width="1.5"></path><path d="M1160.02 253.85L1138.78 358.35" stroke="hsl(240, 1.3%, 40.3%)" stroke-width="1.5"></path><path d="M1160.02 253.85L1308.78 359.03" stroke="hsl(240, 1.3%, 40.3%)" stroke-width="1.5"></path><path d="M1160.02 253.85L1296.01 47.75" stroke="hsl(240, 1.3%, 40.3%)" stroke-width="1.5"></path><path d="M1138.78 358.35L1138.78 358.35" stroke="hsl(240, 1.3%, 40.3%)" stroke-width="1.5"></path><path d="M1138.78 358.35L1091.63 493.21" stroke="hsl(240, 1.3%, 40.3%)" stroke-width="1.5"></path><path d="M1091.63 493.21L1091.63 493.21" stroke="hsl(240, 1.3%, 40.3%)" stroke-width="1.5"></path><path d="M1091.63 493.21L1133.53 682.28" stroke="hsl(240, 1.3%, 40.3%)" stroke-width="1.5"></path><path d="M1091.63 493.21L1260.22 658.05" stroke="hsl(240, 1.3%, 40.3%)" stroke-width="1.5"></path><path d="M1133.53 682.28L1133.53 682.28" stroke="hsl(240, 1.3%, 40.3%)" stroke-width="1.5"></path><path d="M1133.53 682.28L1260.22 658.05" stroke="hsl(240, 1.3%, 40.3%)" stroke-width="1.5"></path><path d="M1276.21 -49.75L1276.21 -49.75" stroke="hsl(240, 1.3%, 40.3%)" stroke-width="1.5"></path><path d="M1276.21 -49.75L1296.01 47.75" stroke="hsl(240, 1.3%, 40.3%)" stroke-width="1.5"></path><path d="M1276.21 -49.75L1440.55 -71.67" stroke="hsl(240, 1.3%, 40.3%)" stroke-width="1.5"></path><path d="M1296.01 47.75L1296.01 47.75" stroke="hsl(240, 1.3%, 40.3%)" stroke-width="1.5"></path><path d="M1296.01 47.75L1440.55 -71.67" stroke="hsl(240, 1.3%, 40.3%)" stroke-width="1.5"></path><path d="M1308.78 359.03L1308.78 359.03" stroke="hsl(240, 1.3%, 40.3%)" stroke-width="1.5"></path><path d="M1308.78 359.03L1431.37 357.63" stroke="hsl(240, 1.3%, 40.3%)" stroke-width="1.5"></path><path d="M1260.22 658.05L1260.22 658.05" stroke="hsl(240, 1.3%, 40.3%)" stroke-width="1.5"></path><path d="M1260.22 658.05L1424.28 498.14" stroke="hsl(240, 1.3%, 40.3%)" stroke-width="1.5"></path><path d="M1260.22 658.05L1002.4 544.04" stroke="hsl(240, 1.3%, 40.3%)" stroke-width="1.5"></path><path d="M1260.22 658.05L1551.87 672.4" stroke="hsl(240, 1.3%, 40.3%)" stroke-width="1.5"></path><path d="M1440.55 -71.67L1440.55 -71.67" stroke="hsl(240, 1.3%, 40.3%)" stroke-width="1.5"></path><path d="M1440.55 -71.67L1575.79 42.23" stroke="hsl(240, 1.3%, 40.3%)" stroke-width="1.5"></path><path d="M1431.37 357.63L1431.37 357.63" stroke="hsl(240, 1.3%, 40.3%)" stroke-width="1.5"></path><path d="M1431.37 357.63L1424.28 498.14" stroke="hsl(240, 1.3%, 40.3%)" stroke-width="1.5"></path><path d="M1431.37 357.63L1578.64 385.9" stroke="hsl(240, 1.3%, 40.3%)" stroke-width="1.5"></path><path d="M1431.37 357.63L1553.17 506.59" stroke="hsl(240, 1.3%, 40.3%)" stroke-width="1.5"></path><path d="M1424.28 498.14L1424.28 498.14" stroke="hsl(240, 1.3%, 40.3%)" stroke-width="1.5"></path><path d="M1424.28 498.14L1553.17 506.59" stroke="hsl(240, 1.3%, 40.3%)" stroke-width="1.5"></path><path d="M1424.28 498.14L1308.78 359.03" stroke="hsl(240, 1.3%, 40.3%)" stroke-width="1.5"></path><path d="M1575.79 42.23L1575.79 42.23" stroke="hsl(240, 1.3%, 40.3%)" stroke-width="1.5"></path><path d="M1578.64 385.9L1578.64 385.9" stroke="hsl(240, 1.3%, 40.3%)" stroke-width="1.5"></path><path d="M1578.64 385.9L1553.17 506.59" stroke="hsl(240, 1.3%, 40.3%)" stroke-width="1.5"></path><path d="M1578.64 385.9L1424.28 498.14" stroke="hsl(240, 1.3%, 40.3%)" stroke-width="1.5"></path><path d="M1578.64 385.9L1308.78 359.03" stroke="hsl(240, 1.3%, 40.3%)" stroke-width="1.5"></path><path d="M1553.17 506.59L1553.17 506.59" stroke="hsl(240, 1.3%, 40.3%)" stroke-width="1.5"></path><path d="M1551.87 672.4L1551.87 672.4" stroke="hsl(240, 1.3%, 40.3%)" stroke-width="1.5"></path><path d="M1551.87 672.4L1553.17 506.59" stroke="hsl(240, 1.3%, 40.3%)" stroke-width="1.5"></path><path d="M1551.87 672.4L1424.28 498.14" stroke="hsl(240, 1.3%, 40.3%)" stroke-width="1.5"></path><path d="M1551.87 672.4L1578.64 385.9" stroke="hsl(240, 1.3%, 40.3%)" stroke-width="1.5"></path><path d="M1551.87 672.4L1277.59 502.04" stroke="hsl(240, 1.3%, 40.3%)" stroke-width="1.5"></path><path d="M1551.87 672.4L1431.37 357.63" stroke="hsl(240, 1.3%, 40.3%)" stroke-width="1.5"></path><circle r="25" cx="1277.59" cy="502.04" fill="url(#SvgjsRadialGradient1013)"></circle><circle r="25" cx="1429.71" cy="100.65" fill="url(#SvgjsRadialGradient1013)"></circle><circle r="25" cx="1600.42" cy="-82.25" fill="url(#SvgjsRadialGradient1013)"></circle><circle r="5" cx="-88.12" cy="492.41" fill="#a7a7a8"></circle><circle r="5" cx="-44.24" cy="683.25" fill="#a7a7a8"></circle><circle r="5" cx="104.07" cy="560.83" fill="#a7a7a8"></circle><circle r="5" cx="100.19" cy="711.42" fill="#a7a7a8"></circle><circle r="5" cx="219.51" cy="530.14" fill="#a7a7a8"></circle><circle r="5" cx="207.9" cy="677.48" fill="#a7a7a8"></circle><circle r="5" cx="362.95" cy="511.74" fill="#a7a7a8"></circle><circle r="5" cx="399.85" cy="646.3" fill="#a7a7a8"></circle><circle r="5" cx="531.55" cy="411.53" fill="#a7a7a8"></circle><circle r="5" cx="547.66" cy="539.75" fill="#a7a7a8"></circle><circle r="5" cx="557.92" cy="686.79" fill="#a7a7a8"></circle><circle r="5" cx="696.15" cy="541.66" fill="#a7a7a8"></circle><circle r="5" cx="684.44" cy="652.17" fill="#a7a7a8"></circle><circle r="5" cx="831.11" cy="380.68" fill="#a7a7a8"></circle><circle r="5" cx="845.72" cy="556.49" fill="#a7a7a8"></circle><circle r="5" cx="794.44" cy="706.59" fill="#a7a7a8"></circle><circle r="5" cx="990.05" cy="377.24" fill="#a7a7a8"></circle><circle r="5" cx="1002.4" cy="544.04" fill="#a7a7a8"></circle><circle r="5" cx="1160.02" cy="253.85" fill="#a7a7a8"></circle><circle r="5" cx="1138.78" cy="358.35" fill="#a7a7a8"></circle><circle r="5" cx="1091.63" cy="493.21" fill="#a7a7a8"></circle><circle r="5" cx="1133.53" cy="682.28" fill="#a7a7a8"></circle><circle r="5" cx="1276.21" cy="-49.75" fill="#a7a7a8"></circle><circle r="5" cx="1296.01" cy="47.75" fill="#a7a7a8"></circle><circle r="5" cx="1308.78" cy="359.03" fill="#a7a7a8"></circle><circle r="5" cx="1260.22" cy="658.05" fill="#a7a7a8"></circle><circle r="5" cx="1440.55" cy="-71.67" fill="#a7a7a8"></circle><circle r="5" cx="1431.37" cy="357.63" fill="#a7a7a8"></circle><circle r="5" cx="1424.28" cy="498.14" fill="#a7a7a8"></circle><circle r="5" cx="1575.79" cy="42.23" fill="#a7a7a8"></circle><circle r="5" cx="1578.64" cy="385.9" fill="#a7a7a8"></circle><circle r="5" cx="1553.17" cy="506.59" fill="#a7a7a8"></circle><circle r="5" cx="1551.87" cy="672.4" fill="#a7a7a8"></circle></g><defs><mask id="SvgjsMask1012"><rect width="1440" height="560" fill="#ffffff"></rect></mask><radialGradient id="SvgjsRadialGradient1013"><stop stop-color="#ffffff" offset="0.1"></stop><stop stop-color="rgba(78, 78, 80, 1)" offset="0.2"></stop><stop stop-color="rgba(78, 78, 80, 0)" offset="1"></stop></radialGradient></defs></svg>